<svg xmlns="http://www.w3.org/2000/svg" viewBox="0 0 1200 620" role="img" aria-labelledby="title desc">
  <title id="title">太原理工大学校门广场</title>
  <desc id="desc">蓝天下的校门、教学楼和写有太原理工大学的景墙</desc>
  <defs>
    <linearGradient id="gate-sky" x1="0" y1="0" x2="0" y2="1">
      <stop offset="0" stop-color="#197fe6"/>
      <stop offset=".65" stop-color="#7cc1f1"/>
      <stop offset="1" stop-color="#eef8ff"/>
    </linearGradient>
    <linearGradient id="stone" x1="0" y1="0" x2="0" y2="1">
      <stop offset="0" stop-color="#f5efe5"/>
      <stop offset="1" stop-color="#c8bcae"/>
    </linearGradient>
  </defs>
  <rect width="1200" height="620" fill="url(#gate-sky)"/>
  <g transform="translate(105 218)">
    <rect x="0" y="42" width="230" height="164" fill="#d9b66b"/>
    <rect x="22" y="0" width="186" height="58" fill="#9a5a33"/>
    <g fill="#2e689d">
      <rect x="28" y="68" width="24" height="38"/>
      <rect x="68" y="68" width="24" height="38"/>
      <rect x="108" y="68" width="24" height="38"/>
      <rect x="148" y="68" width="24" height="38"/>
      <rect x="188" y="68" width="24" height="38"/>
    </g>
  </g>
  <g transform="translate(865 218)">
    <rect x="0" y="42" width="230" height="164" fill="#d9b66b"/>
    <rect x="22" y="0" width="186" height="58" fill="#9a5a33"/>
    <g fill="#2e689d">
      <rect x="28" y="68" width="24" height="38"/>
      <rect x="68" y="68" width="24" height="38"/>
      <rect x="108" y="68" width="24" height="38"/>
      <rect x="148" y="68" width="24" height="38"/>
      <rect x="188" y="68" width="24" height="38"/>
    </g>
  </g>
  <g transform="translate(468 176)">
    <rect x="0" y="0" width="260" height="190" fill="#e7d3a8"/>
    <rect x="42" y="34" width="176" height="132" fill="#e9eef1"/>
    <rect x="92" y="-30" width="76" height="220" fill="#cf8b3d"/>
    <g fill="#2a6aa2">
      <rect x="63" y="58" width="34" height="88"/>
      <rect x="114" y="58" width="34" height="88"/>
      <rect x="165" y="58" width="34" height="88"/>
    </g>
  </g>
  <path d="M0 398h1200v222H0z" fill="#d9d2c5"/>
  <path d="M140 426h920l60 112H80z" fill="#eee7db"/>
  <path d="M78 538h1044v82H78z" fill="url(#stone)"/>
  <text x="600" y="593" text-anchor="middle" fill="#8d221d" font-size="42" font-family="KaiTi, STKaiti, Microsoft YaHei, serif" font-weight="700">太 原 理 工 大 学</text>
  <g stroke="#b2a696" stroke-width="2" opacity=".8">
    <path d="M0 452h1200"/>
    <path d="M0 492h1200"/>
    <path d="M0 532h1200"/>
    <path d="M96 398v222"/>
    <path d="M240 398v222"/>
    <path d="M384 398v222"/>
    <path d="M528 398v222"/>
    <path d="M672 398v222"/>
    <path d="M816 398v222"/>
    <path d="M960 398v222"/>
    <path d="M1104 398v222"/>
  </g>
  <g fill="#507b41">
    <ellipse cx="168" cy="386" rx="72" ry="20"/>
    <ellipse cx="1036" cy="386" rx="72" ry="20"/>
    <rect x="0" y="370" width="1200" height="36" opacity=".52"/>
  </g>
</svg>
